<svg xmlns="http://www.w3.org/2000/svg" aria-hidden="true" style="position:absolute;width:0;height:0;overflow:hidden"><defs><symbol id="icon-Arrow-1" viewBox="0 0 69 32"><path fill="#fff" d="M2.67 14a2 2 0 1 0 0 4v-4zm65.41 3.41a2 2 0 0 0 0-2.82L55.35 1.86a2 2 0 1 0-2.83 2.83l11.32 11.3-11.32 11.32a2 2 0 1 0 2.83 2.83l12.73-12.73zM2.67 18h64v-4h-64v4z" style="fill:var(--color1, #fff)"/></symbol><symbol id="icon-bag" viewBox="0 0 43 32"><path fill="#e3e3e3" d="M42.32 31.1v.65h.65v-.64h-.65zm-10.48 0h-.65v.65h.65v-.64zm0-5.3v-.65h-.65v.64h.65zm10.48 0h.65v-.65h-.65v.64zm-10.47 5.95a.65.65 0 0 0 0-1.29v1.3zm-10.48-.64h-.65v.64h.65v-.64zm0-5.32v-.64h-.65v.64h.65zm10.48.65a.65.65 0 0 0 0-1.3v1.3zm-5.88-.65a.65.65 0 0 0 1.29 0h-1.3zm.64-5.32v-.64h-.64v.64h.64zm10.48 0h.65v-.64h-.65v.64zm-.64 5.32a.65.65 0 0 0 1.29 0h-1.29zm-16.93 3.57a.65.65 0 0 0 0-1.3v1.3zm-16.84-15a.65.65 0 0 0-1.3 0h1.3zm29.81 0a.65.65 0 0 0-1.29 0h1.3zm-1.29 4.45a.65.65 0 0 0 1.3 0h-1.3zm-16.12-2.6a.65.65 0 0 0 .02-1.3l-.02 1.3zM1.5 14.27l-.1.63.1-.63zm30.88 0 .1.63-.1-.63zm-13.6.63a.65.65 0 0 0 .02 1.3l-.03-1.3zm-3.7 3.76a.65.65 0 0 0 0 1.29v-1.29zm3.7 1.29a.65.65 0 0 0 0-1.29v1.29zm4.45-14.84a.65.65 0 0 0 1.29 0h-1.3zm-13.87 0a.65.65 0 0 0 1.29 0h-1.3zm32.96 25.34H31.84v1.3h10.48v-1.3zm-9.84.65v-5.32H31.2v5.32h1.3zm-.64-4.67h10.48v-1.3H31.84v1.3zm9.84-.65v5.32h1.29v-5.32h-1.3zm-9.83 4.67H21.37v1.3h10.48v-1.3zm-9.84.65v-5.32h-1.29v5.32h1.3zm-.64-4.67h10.48v-1.3H21.37v1.3zm5.89-.65v-5.32h-1.3v5.32h1.3zm-.65-4.67H37.1v-1.3H26.6v1.3zm9.84-.65v5.32h1.29v-5.32h-1.29zm-16.93 7.6H3.82v1.29h15.7v-1.3zm-15.7 0c-.63 0-1.15-.52-1.15-1.16H1.38c0 1.35 1.1 2.45 2.45 2.45v-1.3zM2.68 26.9V14.37H1.38V26.9h1.3zM31.2 14.37v4.43h1.3v-4.43h-1.3zm-16.1.54a91.57 91.57 0 0 1-13.5-1.27l-.2 1.27c4.52.77 9.1 1.2 13.68 1.3l.02-1.3zM1.6 13.64c.05 0 .08.04.08.08H.38c0 .59.43 1.1 1.01 1.2l.22-1.28zm.08.08V6.38H.38v7.34h1.3zm0-7.34c0-.34.27-.61.61-.61V4.48a1.9 1.9 0 0 0-1.9 1.9h1.29zm.61-.61h29.3V4.48H2.29v1.29zm29.3 0c.34 0 .61.28.61.61h1.3a1.9 1.9 0 0 0-1.91-1.9v1.29zm.61.61v7.34h1.3V6.38h-1.3zm0 7.34c0-.04.03-.07.07-.08l.22 1.27c.58-.1 1-.6 1-1.19H32.2zm.07-.08a92.03 92.03 0 0 1-13.5 1.27l.03 1.3c4.58-.1 9.15-.53 13.69-1.3l-.22-1.27zm-16.36.73h2.06v-1.29H15.9v1.29zm2.05 0c.1 0 .18.08.18.18h1.3c0-.81-.67-1.47-1.48-1.47v1.29zm.18.18v2.05h1.3v-2.05h-1.3zm0 2.05c0 .1-.08.18-.18.18v1.3c.81 0 1.47-.67 1.47-1.48h-1.29zm-.18.18h-2.05v1.3h2.05v-1.3zm-2.05 0a.18.18 0 0 1-.18-.18h-1.29c0 .81.66 1.47 1.47 1.47v-1.29zm-.18-.18v-2.05h-1.29v2.05h1.3zm0-2.05c0-.1.08-.18.18-.18v-1.29c-.8 0-1.47.66-1.47 1.47h1.3zm-.64 5.41h3.7v-1.29h-3.7v1.29zm9.43-14.84V2.52h-1.3v2.62h1.3zm0-2.61c0-1.17-.95-2.12-2.12-2.12v1.29c.46 0 .83.37.83.83h1.29zM22.4.39H11.48v1.29H22.4V.38zm-10.92 0c-1.17 0-2.12.95-2.12 2.12h1.29c0-.46.37-.83.83-.83V.38zM9.36 2.5v2.62h1.29V2.5h-1.3z" style="fill:var(--color2, #e3e3e3)"/></symbol><symbol id="icon-calculate" viewBox="0 0 32 32"><path fill="none" stroke="#e3e3e3" stroke-linecap="round" stroke-miterlimit="10" stroke-width=".94" d="M14.25 2.81h7.14v9.5m-5.5 15.33H1.13V2.8h6.64M6.14 7.9h9.64m-9.54 2.25h9.65m9.65 11.56h2.26m-8.47 0h2.27m-1.13-1v2.01m-.8 3.75 1.6 1.42m0-1.42-1.6 1.42m5.63-.73h2.26m-9.95-2.83h11.92m-5.9-5.32v10.64M7.77 1.52V4.5c0 .28.26.5.57.5h.23c.29 0 .53-.18.57-.44V4.5c.14-.89.98-1.55 1.99-1.55 1 0 1.85.66 1.98 1.55v.06c.04.26.28.45.57.45.31 0 .57-.23.57-.51V1.52c0-.21-.2-.4-.44-.4h-5.6c-.24 0-.44.18-.44.4zM17.4 12.3h12.33c.84 0 1.52.6 1.52 1.35V29.9c0 .75-.68 1.36-1.52 1.36H17.4c-.83 0-1.51-.6-1.51-1.36V13.65c0-.74.68-1.35 1.51-1.35zm.65 1.92h11.04v2.84H18.05v-2.84zm8.46 12.02c-.03.03-.08.03-.11 0s-.03-.07 0-.1c.03-.02.08-.02.1 0s.04.08 0 .1zm0 2c-.03.02-.08.02-.11 0s-.03-.08 0-.1c.03-.03.08-.03.1 0s.04.07 0 .1z" style="stroke:var(--color2, #e3e3e3)"/></symbol><symbol id="icon-close-x" viewBox="0 0 32 32"><path stroke-linecap="round" stroke-width="1.57" d="M30.9.86 15.89 15.88m0 0L.86 30.9m15.02-15.02L30.9 30.9M15.89 15.89.86.86"/></symbol><symbol id="icon-construction-crane" viewBox="0 0 29 32"><path fill="none" stroke="#e3e3e3" stroke-linecap="round" stroke-miterlimit="10" stroke-width=".95" d="M16.26 10.46v18.27m-7.82 0V10.45m5.74 4.62-1.83-1.83-1.83 1.83m3.66 3.65-1.83-1.82-1.83 1.82m3.66 3.66-1.83-1.83-1.83 1.83m3.66 3.66-1.83-1.83-1.83 1.83m14.29-15.58v5.7a1.53 1.53 0 1 1-1.54 1.54m-7-10.13V4.7L12.34.76 8.45 4.7v2.87m.08 21.16h7.65c1.17 0 2.12.96 2.12 2.13v.38H6.4v-.38c0-1.17.96-2.13 2.13-2.13h0zm19.1-18.28-2.82-2.82H.76v4.64H5.4v-1.82h22.24z" style="stroke:var(--color2, #e3e3e3)"/></symbol><symbol id="icon-logo" viewBox="0 0 141 32"><path fill="#0071e3" d="M0 9.18c0-.4.2-.79.54-1L13.49.16c.72-.45 1.64.1 1.64 1v12.09L7.64 8.52V32H1.1C.49 32 0 31.48 0 30.84V9.18zM15.13 13.27l7.05 4.59c.33.2.52.58.52.98v12c0 .64-.48 1.16-1.09 1.16h-5.4c-.6 0-1.08-.52-1.08-1.16V13.27z" style="fill:var(--color3, #0071e3)"/><path d="M31.93 5.92v11.1h4.45c3.3 0 5.25-2.07 5.25-5.61 0-3.55-1.94-5.5-5.25-5.5h-4.45zm2.79 2.28h1.3c1.75 0 2.78 1.13 2.78 3.21 0 2.22-.97 3.34-2.79 3.34h-1.3V8.2zM46.78 17.23c2.6 0 4.23-1.6 4.23-4.4 0-2.75-1.65-4.39-4.23-4.39-2.57 0-4.23 1.65-4.23 4.39 0 2.8 1.63 4.4 4.23 4.4zm0-2c-.93 0-1.5-.86-1.5-2.4 0-1.5.59-2.39 1.5-2.39.92 0 1.5.89 1.5 2.4 0 1.53-.58 2.38-1.5 2.38zM51.83 17.02h7.16v-2.04h-3.66v-.06l3.53-4.61V8.64h-6.94v2.05h3.8v.05l-3.9 4.84v1.44zM63.98 10.38c.85 0 1.45.6 1.5 1.5h-3.01c.06-.88.68-1.5 1.5-1.5zm1.55 4c-.19.57-.75.91-1.47.91-.97 0-1.63-.69-1.63-1.69v-.17H68v-.77c0-2.56-1.59-4.22-4.08-4.22-2.53 0-4.11 1.73-4.11 4.44s1.57 4.35 4.2 4.35c2.17 0 3.69-1.12 3.94-2.85h-2.43zM69.06 17.02h2.7v-4.74c0-.92.52-1.57 1.38-1.57.88 0 1.33.57 1.33 1.52v4.8h2.69v-5.39c0-1.99-1.03-3.16-2.87-3.16-1.27 0-2.14.62-2.56 1.74h-.06V8.64h-2.61v8.39z" style="fill:var(--color4, #000)"/><path fill="#0071e3" d="M86.86 17.02c2.34 0 3.83-1.25 3.83-3.2 0-1.48-1.17-2.6-2.65-2.66v-.06a2.44 2.44 0 0 0 2.14-2.41c0-1.72-1.3-2.77-3.46-2.77h-5.1v11.1h5.24zm-2.44-9.1h1.57c.93 0 1.48.46 1.48 1.24 0 .8-.61 1.28-1.62 1.28h-1.44V7.92zm0 7.1v-2.86h1.64c1.14 0 1.8.5 1.8 1.42 0 .94-.64 1.44-1.79 1.44h-1.65zM99.74 8.64h-2.68v4.74c0 .95-.54 1.58-1.37 1.58-.84 0-1.35-.53-1.35-1.52v-4.8h-2.7v5.4c0 1.97 1.26 3.15 3.03 3.15 1.25 0 2.04-.65 2.4-1.75h.06v1.59h2.61V8.64zM101.07 17.02h2.69V8.64h-2.69v8.38zm1.35-9.05a1.33 1.33 0 1 0 0-2.68 1.33 1.33 0 1 0 0 2.67zM105.12 17.02h2.7V5.92h-2.7v11.1zM112.2 17.15c1.23 0 2.19-.67 2.52-1.56h.06v1.43h2.67V5.92h-2.69v4.2h-.05a2.56 2.56 0 0 0-2.48-1.6c-2.06 0-3.32 1.62-3.32 4.3 0 2.7 1.24 4.33 3.3 4.33zm1.01-6.5c.97 0 1.56.84 1.56 2.19 0 1.36-.59 2.17-1.56 2.17s-1.55-.82-1.55-2.17.59-2.19 1.55-2.19zM122.68 10.38c.85 0 1.45.6 1.5 1.5h-3.01c.07-.88.68-1.5 1.5-1.5zm1.56 4c-.2.57-.76.91-1.48.91-.97 0-1.63-.69-1.63-1.69v-.17h5.58v-.77c0-2.56-1.59-4.22-4.08-4.22-2.52 0-4.11 1.73-4.11 4.44s1.57 4.35 4.2 4.35c2.17 0 3.69-1.12 3.95-2.85h-2.43zM127.76 17.02h2.7v-4.4c0-1.18.6-1.82 1.74-1.82.32 0 .63.06.86.15V8.63c-.18-.07-.41-.11-.68-.11-.98 0-1.64.58-1.95 1.7h-.05V8.65h-2.62v8.38zM133.74 11.18c0 1.29.85 2.15 2.47 2.5l1.56.33c.65.14.9.33.9.67 0 .44-.44.7-1.16.7-.79 0-1.28-.36-1.35-.99h-2.62c.12 1.72 1.52 2.83 3.93 2.83 2.3 0 3.86-1.11 3.86-2.85 0-1.27-.7-1.96-2.35-2.31l-1.73-.35c-.62-.14-.93-.37-.93-.7 0-.43.43-.73 1.09-.73.74 0 1.21.38 1.24.98h2.46c-.02-1.73-1.42-2.82-3.68-2.82-2.28 0-3.69 1.07-3.69 2.74z" style="fill:var(--color3, #0071e3)"/><path fill="#9c9c9c" d="M33.24 27.18c.96 0 1.61-.5 1.77-1.38h-.64c-.13.5-.54.8-1.12.8-.77 0-1.26-.61-1.26-1.6 0-.98.5-1.61 1.25-1.61.57 0 1.01.35 1.13.9H35c-.11-.89-.82-1.47-1.77-1.47-1.16 0-1.9.84-1.9 2.18 0 1.34.73 2.18 1.9 2.18zM37.4 22.82c-1.2 0-1.95.84-1.95 2.18s.75 2.18 1.95 2.18 1.95-.84 1.95-2.18-.75-2.18-1.95-2.18zm0 .57c.8 0 1.29.62 1.29 1.61 0 .99-.5 1.6-1.29 1.6S36.1 26 36.1 25c0-.99.5-1.6 1.3-1.6zM40.6 27.11V24h.03l2.16 3.11h.58V22.9h-.63V26h-.02l-2.16-3.11h-.59v4.22h.63zM43.96 25.94c.04.76.66 1.24 1.59 1.24.99 0 1.6-.5 1.6-1.28 0-.62-.35-.97-1.2-1.17l-.46-.12c-.54-.13-.76-.3-.76-.6 0-.38.34-.64.85-.64s.84.26.88.68h.63c-.02-.73-.62-1.23-1.5-1.23-.9 0-1.52.5-1.52 1.23 0 .59.35.95 1.12 1.14l.54.13c.54.13.77.33.77.66 0 .38-.38.65-.9.65-.55 0-.96-.27-1-.7h-.64zM49.42 27.11v-3.66h1.27v-.56h-3.2v.56h1.28v3.66h.65zM51.87 23.44h.89c.5 0 .8.28.8.76s-.28.76-.78.76h-.91v-1.52zm0 2.05h.89l.85 1.62h.75l-.94-1.72c.51-.18.81-.64.81-1.21 0-.79-.53-1.3-1.4-1.3h-1.6v4.23h.64V25.5zM55.5 22.89h-.64v2.74c0 .9.64 1.55 1.69 1.55s1.68-.64 1.68-1.55v-2.74h-.64v2.68c0 .6-.38 1.03-1.05 1.03s-1.03-.43-1.03-1.03V22.9zM60.76 27.18c.96 0 1.61-.5 1.77-1.38h-.64c-.13.5-.54.8-1.13.8-.76 0-1.25-.61-1.25-1.6 0-.98.5-1.61 1.25-1.61.57 0 1.01.35 1.13.9h.64c-.11-.89-.82-1.47-1.77-1.47-1.16 0-1.9.84-1.9 2.18 0 1.34.73 2.18 1.9 2.18zM64.62 27.11v-3.66h1.27v-.56h-3.2v.56h1.28v3.66h.65zM67.07 27.11V22.9h-.65v4.22h.65zM69.64 22.82c-1.2 0-1.95.84-1.95 2.18s.75 2.18 1.95 2.18 1.95-.84 1.95-2.18-.75-2.18-1.95-2.18zm0 .57c.8 0 1.29.62 1.29 1.61 0 .99-.5 1.6-1.29 1.6S68.35 26 68.35 25c0-.99.5-1.6 1.3-1.6zM72.84 27.11V24h.03l2.16 3.11h.58V22.9h-.63V26h-.02L72.8 22.9h-.59v4.22h.63zM79.35 27.18c.96 0 1.6-.5 1.77-1.38h-.65c-.13.5-.54.8-1.12.8-.77 0-1.25-.61-1.25-1.6 0-.98.49-1.61 1.25-1.61.56 0 1 .35 1.12.9h.64c-.1-.89-.82-1.47-1.76-1.47-1.17 0-1.91.84-1.91 2.18 0 1.34.74 2.18 1.9 2.18zM83.5 22.82c-1.2 0-1.95.84-1.95 2.18s.75 2.18 1.95 2.18 1.96-.84 1.96-2.18-.76-2.18-1.95-2.18zm0 .57c.8 0 1.3.62 1.3 1.61 0 .99-.5 1.6-1.3 1.6S82.21 26 82.21 25c0-.99.5-1.6 1.3-1.6zM90.3 27.11V22.9h-.76l-1.34 3.33h-.03l-1.34-3.33h-.75v4.22h.59v-3.1h.02l1.26 3.07h.48L89.68 24h.02v3.11h.6zM91.06 22.89v4.22h.65v-1.44h.9c.81 0 1.39-.57 1.39-1.4 0-.82-.56-1.38-1.37-1.38h-1.57zm.65.55h.75c.56 0 .88.3.88.84s-.32.84-.89.84h-.74v-1.68zM96.94 27.11h.68l-1.5-4.22h-.7l-1.5 4.22h.66l.39-1.14h1.59l.38 1.14zm-1.19-3.52h.02l.62 1.85h-1.26l.62-1.85zM98.7 27.11V24h.04l2.16 3.11h.58V22.9h-.63V26h-.02l-2.16-3.11h-.6v4.22h.64zM104.06 27.11v-1.73l1.47-2.5h-.72l-1.06 1.87h-.02l-1.06-1.86h-.73l1.47 2.5v1.72h.65z" style="fill:var(--color5, #9c9c9c)"/></symbol><symbol id="icon-money" viewBox="0 0 29 32"><path fill="#e3e3e3" d="M20.71 12.3a.48.48 0 1 0 .95 0h-.95zM21.2.76h.48V.3h-.48v.47zM3.79 3.78v.48h.47v-.48h-.48zM.75 25.38H.3v.47h.47v-.47zm11.42.47a.48.48 0 1 0 0-.95v.95zm-4.29-15.6a.48.48 0 1 0-.95 0h.95zm.75-1.22-.15.45.15-.45zM9.4 7.8a.48.48 0 1 0 .95 0H9.4zm-.27-2.19a.48.48 0 1 0-.95 0h.95zm-.95.98a.48.48 0 1 0 .95 0h-.95zm.95 4.9a.48.48 0 1 0-.95 0h.95zm-.95.97a.48.48 0 1 0 .95 0h-.95zm9.01-.51a.48.48 0 1 0-.47-.82l.47.82zM6.25 17.71l-.24-.4a.48.48 0 0 0 0 .82l.24-.42zm5.1 3.5a.48.48 0 1 0 .49-.82l-.48.82zm-2.47-5.29a.48.48 0 1 0-.48.83l.48-.83zm2.02 2.27a.48.48 0 1 0 .47-.83l-.47.83zm.37-3.65a.48.48 0 0 0-.47.82l.47-.82zm2.02 2.26a.48.48 0 0 0 .48-.82l-.48.82zm.38-3.64a.47.47 0 1 0-.48.82l.47-.82zm2.01 2.26a.48.48 0 1 0 .48-.82l-.47.82zm-1.95 7.45-.24-.42a.48.48 0 0 0-.24.42h.48zm3.79-2.2.23-.4a.47.47 0 0 0-.47 0l.24.4zm7.03 4h.47c0-.16-.09-.32-.24-.4l-.23.4zm0 4.38.24.41-.24-.4zm-3.79 2.19-.23.41c.14.09.32.09.47 0l-.24-.41zm-7.03-4h-.48c0 .17.1.33.25.41l.23-.41zm6.56 2.53a.48.48 0 1 0 .95 0h-.95zM17.4 16.26l-.24-.41a.48.48 0 0 0-.24.4h.48zm3.78-2.19.24-.41a.47.47 0 0 0-.48 0l.24.41zm7.04 4h.47c0-.17-.09-.33-.24-.41l-.23.41zm-4.03 6.15a.47.47 0 1 0 .48.82l-.48-.82zm4.03-1.78.23.42a.48.48 0 0 0 .24-.42h-.47zm-4.27.72a.48.48 0 1 0 .95 0h-.95zm-7.03-2.53a.48.48 0 1 0 .95 0h-.95zM28.7 22.5a.48.48 0 1 0-.95 0h.95zm-.47 4.38.24.4a.48.48 0 0 0 .23-.4h-.47zM21.67 12.3V.76h-.96V12.3h.96zM21.19.29H5.12v.95H21.2V.29zM5.12.29c-1 0-1.82.8-1.82 1.81h.96c0-.48.38-.86.86-.86V.29zM3.31 2.1v1.68h.95V2.1H3.3zm.47 1.2H2.1v.96h1.68V3.3zm-1.68 0C1.1 3.3.3 4.13.3 5.13h.95c0-.48.38-.86.86-.86V3.3zM.3 5.13v20.26h.95V5.12H.29zm.47 20.73h11.42v-.95H.76v.95zm6.18-15.6c0 .95.76 1.7 1.7 1.7v-.94a.75.75 0 0 1-.75-.75h-.95zm1.7 1.7c.94 0 1.7-.75 1.7-1.7H9.4c0 .42-.33.76-.75.76v.95zm1.7-1.7c0-.47-.18-.85-.5-1.13-.29-.26-.67-.42-1.05-.54l-.3.9c.35.11.58.23.72.35.12.1.18.23.18.43h.95zM8.8 8.59c-.3-.1-.54-.21-.7-.35a.53.53 0 0 1-.2-.43h-.95c0 .5.22.88.53 1.15.3.26.68.42 1.02.53l.3-.9zm-.9-.78c0-.41.34-.75.75-.75V6.1c-.94 0-1.7.76-1.7 1.7h.95zm.75-.75c.42 0 .75.34.75.75h.95c0-.94-.76-1.7-1.7-1.7v.95zm-.47-1.44v.98h.95V5.6h-.95zm0 5.87v.97h.95v-.97h-.95zm8.54-.36L6 17.3l.48.83 10.7-6.18-.48-.82zm-10.7 7 5.35 3.1.48-.83-5.35-3.09-.48.83zm2.4-1.38 2.49 1.45.47-.83-2.5-1.44-.47.82zm2.39-1.38 2.5 1.44.47-.82-2.5-1.44-.47.82zm2.39-1.38 2.5 1.44.47-.82-2.5-1.44-.47.82zm.78 9.3 3.78-2.19-.47-.82-3.79 2.18.48.83zm3.31-2.19 7.03 4 .48-.83-7.04-4-.47.83zm7.03 3.18-3.79 2.18.48.83 3.79-2.19-.48-.82zm-.24.4v4.38h.96v-4.37h-.96zm.24 3.97-3.79 2.19.48.82 3.79-2.19-.48-.82zM21 30.82l-7.04-4-.47.83 7.04 4 .47-.83zm-6.8-3.58v-4.37h-.95v4.37h.96zm-.7-3.96 7.03 4 .47-.83-7.03-4-.47.83zm6.79 3.58v2.91h.95v-2.9h-.95zm-2.65-10.19 3.8-2.19-.49-.82-3.78 2.19.47.82zm3.32-2.19 7.03 4 .47-.82-7.03-4-.47.82zm7.03 3.18-3.79 2.18.48.83 3.78-2.19-.47-.82zm-3.31 7.38 3.78-2.18-.47-.83-3.79 2.19.48.82zm4.02-2.6v-4.37h-.95v4.37h.95zm-3.79.72v-2.9h-.95v2.9h.96zm-.24-3.32-7.03-4-.47.83 7.03 4 .47-.83zm-7.74-3.58v4.37h.95v-4.37h-.95zm10.82 6.23v4.37h.95V22.5h-.95zm.23 3.96-3.67 2.2.48.81 3.68-2.19-.49-.82z" style="fill:var(--color2, #e3e3e3)"/></symbol><symbol id="icon-pencil" viewBox="0 0 32 32"><path fill="none" stroke="#e3e3e3" stroke-linecap="round" stroke-miterlimit="10" stroke-width=".94" d="m3.28 17.34-1.85 1.84c-.4.4-.4 1.04 0 1.43l2.3 2.32c.4.4 1.04.4 1.44 0L7 21.09m-3.73-3.75L17.66 3l5.54-1.88-1.8 5.63L7.01 21.1l-3.75-3.75zm14.51-10.8-2.08 2.1M1.94 31.09h29.3V1.78L1.95 31.09zm23.98-5.33H14.8l11.12-11.11v11.11z" style="stroke:var(--color2, #e3e3e3)"/></symbol><symbol id="icon-plus" viewBox="0 0 32 32"><path stroke-linecap="round" stroke-width="1.13" d="M16 .75V16m0 0v15.25M16 16h15.25M16 16H.75"/></symbol><symbol id="icon-worker" viewBox="0 0 24 32"><path fill="none" stroke="#e3e3e3" stroke-linecap="round" stroke-linejoin="round" stroke-width="1.14" d="m16.43 18.94 4.95 4.35a6.67 6.67 0 0 1 2.24 5v2.95M8.08 18.94l-5.04 4.35a6.66 6.66 0 0 0-2.28 5.04v2.9" style="stroke:var(--color2, #e3e3e3)"/><path fill="none" stroke="#e3e3e3" stroke-linecap="round" stroke-linejoin="round" stroke-width="1.14" d="M19 12.43c0 4.58-3.01 8.28-6.74 8.28s-6.75-3.7-6.75-8.28M4.45 10.1V10c0-.51.4-.93.9-.93h1.48a3.67 3.67 0 0 0 3.58-4.15L10.07 2A1.1 1.1 0 0 1 11.14.76h2.1c.64 0 1.14.58 1.06 1.24l-.33 2.93a3.67 3.67 0 0 0 3.58 4.15h1.47c.5 0 .91.42.91.93v1.25H4.45V10.1z" style="stroke:var(--color2, #e3e3e3)"/><path fill="none" stroke="#e3e3e3" stroke-linecap="round" stroke-linejoin="round" stroke-width="1.14" d="M19.02 9.08V6.85A4.79 4.79 0 0 0 14.31 2M5.37 9.08V6.85A4.79 4.79 0 0 1 10.1 2M19.51 21.64s-2.85 1.85-2.85 9.6M4.89 21.64s2.84 1.85 2.84 9.6" style="stroke:var(--color2, #e3e3e3)"/></symbol></defs></svg>